<mxfile host="app.diagrams.net" modified="2020-07-02T07:31:40.241Z" agent="5.0 (X11; Linux x86_64) AppleWebKit/537.36 (KHTML, like Gecko) Ubuntu Chromium/83.0.4103.61 Chrome/83.0.4103.61 Safari/537.36" etag="VE98-TAtSZuM3qFDplgo" version="13.3.6" type="github">
  <diagram id="HH-Alau5WofugaE-LvpL" name="第 1 页">
    <mxGraphModel dx="846" dy="440" grid="1" gridSize="10" guides="1" tooltips="1" connect="1" arrows="1" fold="1" page="1" pageScale="1" pageWidth="827" pageHeight="1169" math="0" shadow="0">
      <root>
        <mxCell id="0" />
        <mxCell id="1" parent="0" />
        <mxCell id="Dx8XvzDy_XYDV73OcFw9-1" value="2020欠债攻坚战关键一年---------学习计划" style="rounded=0;whiteSpace=wrap;html=1;" vertex="1" parent="1">
          <mxGeometry x="210" y="40" width="270" height="40" as="geometry" />
        </mxCell>
        <mxCell id="Dx8XvzDy_XYDV73OcFw9-2" value="jvm调优" style="rounded=0;whiteSpace=wrap;html=1;" vertex="1" parent="1">
          <mxGeometry x="30" y="100" width="120" height="60" as="geometry" />
        </mxCell>
        <mxCell id="Dx8XvzDy_XYDV73OcFw9-3" value="spring springboot 源码研究" style="rounded=0;whiteSpace=wrap;html=1;" vertex="1" parent="1">
          <mxGeometry x="30" y="190" width="170" height="60" as="geometry" />
        </mxCell>
        <mxCell id="Dx8XvzDy_XYDV73OcFw9-4" value="springcloud全家桶的熟练应用" style="rounded=0;whiteSpace=wrap;html=1;" vertex="1" parent="1">
          <mxGeometry x="30" y="290" width="170" height="60" as="geometry" />
        </mxCell>
        <mxCell id="Dx8XvzDy_XYDV73OcFw9-5" value="设计模式区分及应用" style="rounded=0;whiteSpace=wrap;html=1;" vertex="1" parent="1">
          <mxGeometry x="30" y="390" width="180" height="60" as="geometry" />
        </mxCell>
      </root>
    </mxGraphModel>
  </diagram>
</mxfile>
